<?xml version="1.0" encoding="utf-8"?>
<svg width="19" viewBox="0 0 500 500" xmlns="http://www.w3.org/2000/svg">
  <g style="" transform="matrix(1.8213059902191162, 0, 0, 1.8213059902191162, -220.42030662924503, -239.66980337604585)">
    <path d="M 124.142 179.262 C 124.142 163.054 137.32 149.874 153.529 149.874 L 329.855 149.874 C 346.063 149.874 359.242 163.054 359.242 179.262 L 359.242 326.2 C 359.242 342.409 346.063 355.587 329.855 355.587 L 153.529 355.587 C 137.32 355.587 124.142 342.409 124.142 326.2 L 124.142 179.262 Z M 272.824 228.165 C 270.758 225.134 267.36 223.343 263.732 223.343 C 260.105 223.343 256.661 225.134 254.641 228.165 L 214.692 286.756 L 202.524 271.557 C 200.412 268.94 197.243 267.425 193.938 267.425 C 190.631 267.425 187.417 268.94 185.351 271.557 L 155.963 308.291 C 153.3 311.598 152.795 316.144 154.632 319.955 C 156.469 323.766 160.325 326.2 164.55 326.2 L 318.834 326.2 C 322.92 326.2 326.686 323.95 328.569 320.322 C 330.451 316.695 330.221 312.332 327.925 308.981 L 272.824 228.165 Z M 175.57 223.343 C 192.537 223.343 203.141 204.976 194.657 190.283 C 190.721 183.463 183.444 179.262 175.57 179.262 C 158.603 179.262 147.999 197.629 156.483 212.323 C 160.42 219.143 167.695 223.343 175.57 223.343 Z" fill="#dc2626" style="transform-box: fill-box; transform-origin: 50% 50%;"/>
    <path d="M 387.323 270.079 C 393.174 264.228 393.174 254.727 387.323 248.876 C 381.474 243.027 371.972 243.027 366.122 248.876 L 316.837 298.207 L 267.506 248.924 C 261.655 243.073 252.155 243.073 246.304 248.924 C 240.454 254.775 240.454 264.275 246.304 270.126 L 295.635 319.41 L 246.351 368.741 C 240.5 374.592 240.5 384.092 246.351 389.943 C 252.201 395.793 261.703 395.793 267.552 389.943 L 316.837 340.612 L 366.168 389.896 C 372.019 395.747 381.52 395.747 387.37 389.896 C 393.22 384.046 393.22 374.544 387.37 368.695 L 338.04 319.41 L 387.323 270.079 Z" fill="#dc2626" style=""/>
  </g>
</svg>